<?xml version="1.0" standalone="no"?>
<!DOCTYPE svg PUBLIC "-//W3C//DTD SVG 20010904//EN"
 "http://www.w3.org/TR/2001/REC-SVG-20010904/DTD/svg10.dtd">
<svg version="1.0" xmlns="http://www.w3.org/2000/svg"
 width="500.000000pt" height="500.000000pt" viewBox="0 0 500.000000 500.000000"
 preserveAspectRatio="xMidYMid meet">

<g transform="translate(0.000000,500.000000) scale(0.100000,-0.100000)"
fill="#000000" stroke="none">
<path d="M1864 3136 c-10 -26 4 -48 28 -44 17 2 23 10 23 28 0 18 -6 26 -23
28 -13 2 -25 -3 -28 -12z"/>
<path d="M1095 2999 c-4 -22 -3 -45 2 -50 4 -4 60 -10 123 -11 l115 -3 3 -281
2 -281 -46 -7 c-26 -3 -79 -6 -119 -6 -78 0 -84 -5 -85 -67 l0 -23 310 0 310
0 0 45 0 45 -125 0 -125 0 0 261 c0 205 3 259 13 253 6 -5 56 -40 109 -79 124
-90 383 -275 411 -295 12 -8 76 -53 142 -101 160 -115 200 -139 230 -139 l25
0 0 340 0 340 238 -2 237 -3 3 -281 2 -281 -46 -7 c-26 -3 -82 -6 -125 -6
l-79 0 0 -45 0 -45 610 0 610 0 0 145 0 145 -55 0 -55 0 0 -94 0 -93 -46 -7
c-26 -3 -192 -6 -370 -6 l-324 0 0 125 0 125 180 0 180 0 0 -60 0 -60 50 0 50
0 0 165 0 165 -50 0 -50 0 0 -60 0 -60 -180 0 -180 0 0 120 0 120 370 0 370 0
0 -101 0 -100 53 3 52 3 0 145 0 145 -896 3 -896 2 -7 -41 c-4 -22 -4 -44 -1
-50 4 -5 60 -9 126 -9 l119 0 0 -245 0 -245 -42 26 c-24 15 -210 148 -415 296
l-371 268 -175 0 -175 0 -7 -41z"/>
<path d="M3084 2176 c-10 -26 4 -48 28 -44 17 2 23 10 23 28 0 18 -6 26 -23
28 -13 2 -25 -3 -28 -12z"/>
<path d="M1172 1880 l2 -75 3 64 4 63 46 -58 c25 -33 47 -58 50 -56 8 3 7 122
-1 129 -3 4 -6 -20 -6 -53 l0 -59 -28 35 c-15 19 -37 46 -49 60 l-22 25 1 -75z"/>
<path d="M1403 1880 c0 -41 2 -58 4 -37 2 20 2 54 0 75 -2 20 -4 3 -4 -38z"/>
<path d="M1532 1883 l-2 -73 48 2 47 1 -42 4 -42 4 -4 67 -3 67 -2 -72z"/>
<path d="M1720 1880 l0 -70 45 0 c56 0 85 25 85 73 0 47 -26 67 -83 67 l-47 0
0 -70z m104 44 c9 -8 16 -27 16 -41 0 -39 -27 -63 -72 -63 l-38 0 0 60 0 60
39 0 c23 0 46 -7 55 -16z"/>
<path d="M1960 1880 l0 -70 53 2 52 2 -47 3 c-45 4 -48 6 -48 33 0 26 4 29 38
33 l37 4 -37 1 c-33 2 -38 5 -38 26 0 22 5 25 43 29 l42 4 -47 1 -48 2 0 -70z"/>
<path d="M2162 1878 l1 -73 6 60 6 60 28 -47 c16 -27 30 -48 32 -48 2 0 16 21
32 48 l28 47 6 -60 6 -60 1 73 c2 75 -8 91 -27 45 -6 -16 -20 -39 -30 -52
l-18 -24 -29 52 c-16 28 -32 51 -36 51 -5 0 -7 -33 -6 -72z"/>
<path d="M2550 1880 l0 -70 53 2 52 2 -47 3 c-45 4 -48 6 -48 33 0 26 4 29 38
33 l37 4 -37 1 c-33 2 -38 5 -38 26 0 22 5 25 43 29 l42 4 -47 1 -48 2 0 -70z"/>
<path d="M2751 1878 c1 -46 4 -64 8 -48 10 37 48 39 78 3 25 -28 25 -28 9 -1
-13 23 -13 28 -1 38 18 15 19 52 3 68 -7 7 -31 12 -55 12 l-43 0 1 -72z m94
27 c0 -28 -3 -30 -42 -33 l-43 -3 0 36 0 36 43 -3 c39 -3 42 -5 42 -33z"/>
<path d="M2971 1941 c24 -6 26 -9 24 -64 0 -32 3 -61 7 -63 4 -3 8 24 8 60 0
59 2 65 23 69 12 2 -3 4 -33 4 -36 1 -46 -2 -29 -6z"/>
<path d="M3151 1899 c-1 -63 17 -89 62 -89 37 0 57 34 56 95 l-2 50 -7 -59
c-8 -60 -19 -76 -57 -76 -29 0 -37 14 -44 80 l-6 55 -2 -56z"/>
<path d="M3381 1878 c1 -46 4 -64 8 -48 10 37 49 39 80 3 23 -27 23 -27 8 -1
-14 23 -14 28 -2 38 18 15 19 52 3 68 -7 7 -31 12 -55 12 l-43 0 1 -72z m94
27 c0 -28 -3 -30 -42 -33 l-43 -3 0 36 0 36 43 -3 c39 -3 42 -5 42 -33z"/>
<path d="M3603 1880 c0 -41 2 -63 4 -48 8 50 28 53 68 11 l37 -38 -32 43 -33
43 29 32 c16 18 8 12 -18 -12 l-47 -44 -4 44 c-2 25 -4 11 -4 -31z"/>
</g>
</svg>
