<?xml version="1.0" standalone="no"?>
<!DOCTYPE svg PUBLIC "-//W3C//DTD SVG 20010904//EN"
 "http://www.w3.org/TR/2001/REC-SVG-20010904/DTD/svg10.dtd">
<svg version="1.0" xmlns="http://www.w3.org/2000/svg"
 width="500.000000pt" height="500.000000pt" viewBox="0 0 500.000000 500.000000"
 preserveAspectRatio="xMidYMid meet">

<g transform="translate(0.000000,500.000000) scale(0.100000,-0.100000)"
fill="#000000" stroke="none">
<path d="M2689 4100 c-44 -23 -75 -84 -65 -131 3 -17 24 -59 47 -93 34 -51 40
-66 35 -96 -3 -19 -6 -58 -6 -85 l0 -51 -57 -12 c-186 -38 -323 -76 -323 -89
0 -7 2 -13 5 -13 6 0 242 53 329 74 l58 14 142 -68 c132 -64 252 -117 606
-270 80 -35 153 -70 163 -78 26 -23 22 -52 -8 -52 -23 0 -518 48 -1295 125
-569 57 -590 60 -601 76 -14 23 23 46 104 63 258 57 347 81 347 95 0 10 -8 12
-32 7 -18 -4 -42 -9 -53 -11 -236 -49 -371 -86 -387 -105 -23 -28 -23 -42 0
-70 19 -23 80 -33 357 -60 109 -10 537 -53 705 -70 325 -33 820 -80 850 -80
45 0 60 15 60 56 0 42 -19 55 -185 127 -265 113 -494 215 -624 277 l-134 64 7
92 6 91 -42 64 c-56 84 -58 129 -8 170 19 17 46 29 62 29 33 0 90 -48 108 -90
15 -36 45 -42 35 -7 -22 71 -84 127 -139 127 -17 -1 -47 -9 -67 -20z"/>
<path d="M1182 2167 c-18 -5 -52 -27 -76 -49 -24 -21 -46 -38 -49 -38 -3 0 -1
16 5 36 10 38 0 63 -20 50 -6 -4 -25 -50 -42 -104 -17 -53 -49 -126 -69 -162
-79 -134 -126 -270 -151 -433 -6 -42 -9 -81 -5 -87 15 -24 34 -7 45 43 17 69
96 303 151 447 40 104 50 121 110 182 96 99 184 132 225 87 16 -18 19 -37 19
-138 -1 -104 -6 -136 -48 -306 -26 -105 -47 -201 -47 -213 0 -59 53 -84 84
-40 24 34 19 42 -10 19 -53 -42 -53 -22 1 199 48 195 67 322 60 385 -15 115
-77 156 -183 122z m125 -419 c-3 -8 -6 -5 -6 6 -1 11 2 17 5 13 3 -3 4 -12 1
-19z m-10 -40 c-3 -8 -6 -5 -6 6 -1 11 2 17 5 13 3 -3 4 -12 1 -19z m-10 -40
c-3 -8 -6 -5 -6 6 -1 11 2 17 5 13 3 -3 4 -12 1 -19z m-10 -50 c-3 -8 -6 -5
-6 6 -1 11 2 17 5 13 3 -3 4 -12 1 -19z"/>
<path d="M3095 2151 c-91 -42 -227 -169 -241 -227 -16 -65 28 -104 117 -104
l51 0 -96 -91 c-53 -50 -93 -95 -90 -100 3 -5 0 -8 -8 -7 -18 4 -58 -79 -58
-120 0 -113 105 -145 242 -74 73 38 206 133 221 159 7 11 12 11 22 3 15 -12
35 -6 35 10 0 5 9 33 20 63 16 43 28 58 62 77 44 25 37 39 -11 22 -26 -9 -28
-8 -23 14 7 41 -24 28 -42 -16 -9 -22 -15 -44 -14 -48 1 -4 -6 -29 -17 -55
-13 -35 -29 -56 -57 -73 -21 -13 -38 -28 -38 -33 0 -4 -44 -32 -97 -61 -54
-30 -100 -57 -103 -60 -9 -12 -119 -11 -142 1 -31 16 -38 28 -38 71 0 29 11
51 48 99 43 58 153 161 212 201 21 13 23 19 14 35 -9 15 -24 18 -80 18 -64 1
-114 15 -114 34 0 21 67 104 118 146 76 63 145 97 200 99 54 1 63 -13 21 -38
-17 -10 -28 -20 -26 -22 8 -8 87 28 87 40 -1 52 -98 73 -175 37z m-85 -365 c0
-2 -8 -10 -17 -17 -16 -13 -17 -12 -4 4 13 16 21 21 21 13z m-60 -49 c0 -2
-10 -12 -22 -23 l-23 -19 19 23 c18 21 26 27 26 19z"/>
<path d="M2051 2033 c-24 -50 -100 -179 -133 -225 -13 -19 -28 -28 -47 -28
-32 0 -69 -36 -99 -95 -28 -57 -110 -154 -145 -172 -27 -13 -31 -13 -46 2 -12
12 -16 35 -15 98 1 91 39 224 95 326 16 30 29 61 29 69 0 24 -23 7 -45 -34
-11 -21 -30 -57 -42 -79 -12 -22 -31 -77 -43 -122 -23 -83 -40 -109 -102 -148
l-28 -17 0 28 c1 16 7 47 15 69 18 49 18 55 2 55 -36 0 -62 -124 -32 -154 24
-24 40 -20 84 19 l39 35 -5 -43 c-6 -54 17 -113 51 -128 22 -11 31 -8 67 17
23 16 53 46 67 67 24 36 26 37 34 18 13 -36 35 -23 80 44 23 36 48 65 55 65 7
0 17 17 23 38 9 34 69 146 70 130 0 -4 -7 -25 -15 -45 -45 -118 -83 -340 -65
-387 10 -28 50 -37 50 -11 0 9 -6 12 -15 9 -37 -15 -4 213 57 384 16 47 47
122 69 168 44 92 44 94 26 94 -7 0 -23 -21 -36 -47z m-171 -282 c0 -4 -23 -39
-51 -77 -30 -41 -48 -59 -44 -44 18 64 95 162 95 121z"/>
<path d="M3514 1946 l-25 -54 -79 -7 c-44 -4 -80 -12 -80 -17 0 -7 26 -9 75
-5 41 3 75 3 75 1 0 -3 -5 -14 -10 -25 -17 -30 -53 -200 -51 -239 1 -20 10
-43 21 -54 28 -29 66 -12 110 47 26 36 36 43 39 30 10 -54 38 -49 86 14 l34
44 3 -32 c4 -45 29 -58 67 -36 29 17 30 17 33 -5 6 -43 26 -28 49 39 21 60 29
70 68 92 47 26 41 40 -9 23 -27 -10 -29 -9 -27 10 4 35 -18 31 -36 -7 -9 -20
-17 -41 -17 -48 0 -19 -73 -87 -94 -87 -14 0 -16 6 -12 30 3 17 9 44 12 60 8
40 -19 41 -35 1 -16 -36 -91 -111 -91 -90 0 9 9 42 20 74 19 54 19 75 1 75 -4
0 -13 -10 -19 -22 -14 -27 -40 -70 -67 -113 -27 -43 -77 -95 -91 -95 -34 0
-21 125 28 260 l23 65 65 12 65 12 -57 -4 c-63 -5 -68 1 -43 45 8 14 14 33 15
43 0 34 -21 16 -46 -37z"/>
<path d="M4078 1928 c-14 -29 -45 -106 -69 -170 -29 -81 -48 -120 -61 -124
-22 -6 -24 -22 -4 -30 11 -4 13 -18 9 -58 -4 -38 -2 -55 10 -64 12 -11 15 -6
16 30 0 24 4 57 9 73 9 32 14 34 132 53 l55 9 -75 2 -75 1 68 61 c38 35 67 69
67 80 0 27 -25 24 -44 -6 -19 -29 -89 -95 -95 -90 -2 2 7 25 19 50 12 25 19
52 16 61 -3 8 -2 13 2 10 7 -4 46 72 80 156 2 4 -5 8 -16 8 -13 0 -27 -16 -44
-52z"/>
<path d="M3660 1883 c8 -3 18 -11 22 -17 5 -7 8 -4 8 7 0 11 -7 17 -22 16 -16
0 -18 -2 -8 -6z"/>
<path d="M2308 1820 c-14 -11 -41 -49 -59 -84 -27 -52 -44 -72 -89 -100 -79
-51 -130 -47 -116 9 5 18 14 25 38 27 38 4 78 54 78 99 0 26 -3 29 -34 29 -27
0 -38 -7 -59 -37 -42 -61 -59 -120 -44 -151 21 -44 60 -49 127 -14 l59 30 -10
-25 c-12 -32 -12 -80 1 -88 5 -3 16 8 25 26 31 58 85 208 85 233 0 31 37 56
51 35 12 -20 12 -25 -16 -129 -33 -129 -23 -139 59 -55 70 74 91 80 101 33 4
-18 12 -39 17 -45 17 -21 48 -15 60 12 15 33 2 45 -18 17 -18 -26 -34 -20 -34
12 0 12 -6 30 -13 41 -19 25 -54 14 -108 -34 -24 -22 -44 -39 -46 -38 -1 2 4
27 12 57 20 75 19 123 -3 143 -24 22 -34 21 -64 -3z m-179 -67 c-13 -35 -38
-63 -56 -63 -17 0 -3 32 30 68 28 30 39 28 26 -5z"/>
<path d="M3687 1834 c-14 -14 -7 -35 11 -32 9 2 17 10 17 17 0 16 -18 25 -28
15z"/>
<path d="M3747 1833 c-13 -12 -7 -33 8 -33 8 0 15 9 15 20 0 20 -11 26 -23 13z"/>
<path d="M1467 1804 c-8 -8 1 -24 14 -24 5 0 9 7 9 15 0 15 -12 20 -23 9z"/>
</g>
</svg>
